<?xml version="1.0" standalone="no"?>
<!DOCTYPE svg PUBLIC "-//W3C//DTD SVG 1.1//EN" "http://www.w3.org/Graphics/SVG/1.1/DTD/svg11.dtd" >
<svg xmlns="http://www.w3.org/2000/svg" xmlns:xlink="http://www.w3.org/1999/xlink" version="1.1">
<metadata>
Created by FontForge 20141024 at Thu Apr 23 15:11:40 2015
 By System Administrator
Copyright 1998 DoubleAlex Font Studio.  Tornado is a trademark of DoubleAlex Font Studio.
</metadata>
<defs>
<font id="TornadoC" horiz-adv-x="537" >
  <font-face 
    font-family="TornadoC"
    font-weight="400"
    font-stretch="normal"
    units-per-em="1000"
    panose-1="0 0 5 0 0 0 0 0 0 0"
    ascent="775"
    descent="-225"
    x-height="510"
    cap-height="712"
    bbox="-37 -225 1060 892"
    underline-thickness="50"
    underline-position="-50"
    stemh="72"
    stemv="88"
    unicode-range="U+0020-2265"
  />
<missing-glyph horiz-adv-x="1000" 
 />
    <glyph glyph-name=".notdef" horiz-adv-x="1000" 
 />
    <glyph glyph-name="space" unicode=" " horiz-adv-x="278" 
 />
    <glyph glyph-name="space" unicode="&#xa0;" horiz-adv-x="278" 
 />
    <glyph glyph-name="exclam" unicode="!" horiz-adv-x="333" 
d="M206 195h-80l-13 285v232h106v-232zM113 0v106h106v-106h-106z" />
    <glyph glyph-name="quotedbl" unicode="&#x22;" horiz-adv-x="400" 
d="M305 472h-63l-10 240h83zM158 472h-63l-10 240h83z" />
    <glyph glyph-name="numbersign" unicode="#" 
d="M414 426l-18 -140h97v-71h-108l-30 -215h-72l29 215h-124l-30 -215h-72l29 215h-99v71h109l20 140h-100v71h110l31 215h72l-31 -215h126l29 215h73l-30 -215h97v-71h-108zM217 426l-19 -140h125l19 140h-125z" />
    <glyph glyph-name="dollar" unicode="$" 
d="M473 197c0 -111 -73 -186 -177 -203v-99h-56v93h-13c-61 0 -105 11 -149 29v91c38 -26 88 -38 148 -38c1 0 12 0 14 1v258c-88 44 -176 91 -176 204c0 101 76 172 176 187v95h56v-91c47 -1 90 -8 137 -25v-86c-34 19 -81 29 -126 29h-11v-233c3 -3 55 -31 59 -33
c73 -41 118 -89 118 -179zM240 438v196c-48 -15 -77 -43 -77 -99c0 -46 38 -74 77 -97zM374 192c0 56 -33 84 -78 108v-219c48 15 78 59 78 111z" />
    <glyph glyph-name="percent" unicode="%" horiz-adv-x="868" 
d="M677 -11c-115 0 -153 96 -153 200c0 110 33 202 153 202c121 0 155 -92 155 -202c0 -104 -38 -200 -155 -200zM250 -22h-70l437 756h69zM190 321c-116 0 -154 96 -154 202c0 109 32 200 154 200c120 0 153 -92 153 -200c0 -106 -38 -202 -153 -202zM677 324
c-66 0 -70 -88 -70 -135c0 -45 5 -134 70 -134c66 0 72 89 72 134c0 50 -1 135 -72 135zM190 657c-68 0 -71 -88 -71 -134c0 -47 5 -135 71 -135c65 0 70 88 70 135c0 48 -1 134 -70 134z" />
    <glyph glyph-name="ampersand" unicode="&#x26;" horiz-adv-x="667" 
d="M529 0l-62 72c-53 -60 -117 -84 -207 -84c-136 0 -229 75 -229 198c0 108 65 169 162 208c-40 49 -79 97 -79 166c0 111 86 164 187 164c90 0 173 -49 173 -157c0 -95 -81 -152 -159 -188l154 -176c33 49 45 101 49 182h87c-7 -110 -38 -182 -82 -246l124 -139h-118z
M297 653c-50 0 -94 -31 -94 -96c0 -50 35 -90 68 -127c48 23 115 65 115 131c0 67 -38 92 -89 92zM238 340c-58 -35 -108 -74 -108 -148c0 -82 70 -133 146 -133c66 0 114 42 142 72z" />
    <glyph glyph-name="quotesingle" unicode="'" horiz-adv-x="278" 
d="M171 472h-63l-10 240h83z" />
    <glyph glyph-name="parenleft" unicode="(" horiz-adv-x="322" 
d="M306 -140h-80c-90 136 -166 280 -166 448c0 170 76 309 166 448h80c-76 -138 -153 -287 -153 -448s75 -311 153 -448z" />
    <glyph glyph-name="parenright" unicode=")" horiz-adv-x="322" 
d="M262 308c0 -170 -76 -309 -166 -448h-80c76 138 153 287 153 448s-75 311 -153 448h80c90 -136 166 -280 166 -448z" />
    <glyph glyph-name="asterisk" unicode="*" 
d="M480 535l-155 -34l105 -123l-70 -47l-82 136l-82 -136l-69 47l106 123l-157 34l26 80l150 -61l-14 158h84l-13 -158l146 61z" />
    <glyph glyph-name="plus" unicode="+" horiz-adv-x="600" 
d="M553 211h-211v-211h-84v211h-211v84h211v211h84v-211h211v-84z" />
    <glyph glyph-name="comma" unicode="," horiz-adv-x="278" 
d="M195 106l-84 -239h-84l62 239h106z" />
    <glyph glyph-name="hyphen" unicode="-" horiz-adv-x="333" 
d="M294 232h-255v74h255v-74z" />
    <glyph glyph-name="hyphen" unicode="&#xad;" horiz-adv-x="333" 
d="M294 232h-255v74h255v-74z" />
    <glyph glyph-name="period" unicode="." horiz-adv-x="278" 
d="M192 0h-106v106h106v-106z" />
    <glyph glyph-name="slash" unicode="/" horiz-adv-x="278" 
d="M304 724l-246 -736h-84l246 736h84z" />
    <glyph glyph-name="zero" unicode="0" 
d="M268 -11c-196 0 -238 211 -238 367c0 159 44 367 238 367c195 0 239 -208 239 -367c0 -156 -42 -367 -239 -367zM268 645c-124 0 -140 -193 -140 -289c0 -95 12 -289 140 -289c129 0 141 194 141 289c0 96 -16 289 -141 289z" />
    <glyph glyph-name="one" unicode="1" 
d="M259 0v605l-111 -96l-50 63l171 140h84v-712h-94z" />
    <glyph glyph-name="two" unicode="2" 
d="M39 0v99l134 127c81 77 198 192 198 302c0 69 -58 117 -134 117c-64 0 -133 -24 -175 -48v84c57 25 121 42 184 42c126 0 225 -67 225 -199c0 -115 -118 -245 -203 -325l-128 -121h343v-78h-444z" />
    <glyph glyph-name="three" unicode="3" 
d="M207 -11c-58 0 -117 13 -164 27v89c41 -20 106 -38 164 -38c80 0 177 32 177 127c0 111 -93 140 -182 140h-62v78h48c78 0 191 20 191 120c0 82 -71 113 -145 113c-63 0 -121 -17 -165 -40v87c48 17 117 31 177 31c124 0 231 -57 231 -190c0 -88 -68 -143 -151 -160v-4
c95 -16 157 -79 157 -178c0 -156 -134 -202 -276 -202z" />
    <glyph glyph-name="four" unicode="4" 
d="M436 163v-163h-94v163h-333v80l294 469h133v-472h92v-77h-92zM342 633h-4l-234 -393h238v393z" />
    <glyph glyph-name="five" unicode="5" 
d="M221 -11c-71 0 -122 13 -152 23v90c45 -24 92 -35 150 -35c87 0 173 53 173 149c0 104 -74 157 -176 157c-59 0 -99 -9 -139 -25v364h390v-78h-302v-194c22 6 53 11 97 11c127 0 228 -94 228 -221c0 -156 -120 -241 -269 -241z" />
    <glyph glyph-name="six" unicode="6" 
d="M276 -11c-196 0 -236 177 -236 340c0 199 66 394 294 394c46 0 111 -10 139 -21v-84c-35 18 -92 27 -136 27c-144 1 -207 -128 -208 -269l3 2c45 50 97 69 158 69c128 0 214 -86 214 -223c0 -146 -95 -235 -228 -235zM279 370c-89 0 -139 -64 -139 -147
c0 -72 43 -156 131 -156c91 0 135 73 135 154c0 75 -42 149 -127 149z" />
    <glyph glyph-name="seven" unicode="7" 
d="M218 0h-103l273 634h-350v78h446v-79z" />
    <glyph glyph-name="eight" unicode="8" 
d="M266 -11c-118 0 -239 65 -239 196c0 98 65 157 153 188v3c-99 37 -135 106 -135 178c0 96 93 169 225 169c136 0 219 -75 219 -160c0 -82 -42 -136 -133 -185c89 -31 154 -90 154 -189c0 -141 -113 -200 -244 -200zM264 645c-52 0 -126 -33 -126 -104
c0 -56 59 -91 148 -135c80 59 104 90 104 144c0 71 -72 95 -126 95zM254 339c-65 -40 -129 -59 -129 -149c0 -79 76 -123 149 -123c72 0 136 40 138 117c2 98 -86 121 -158 155z" />
    <glyph glyph-name="nine" unicode="9" 
d="M208 -11c-46 0 -111 10 -140 21v87c35 -18 93 -30 137 -30c144 -1 207 128 208 269l-3 -2c-45 -50 -97 -69 -158 -69c-128 0 -214 86 -214 223c0 146 95 235 228 235c196 0 236 -177 236 -340c0 -199 -66 -394 -294 -394zM270 645c-90 0 -134 -73 -134 -154
c0 -75 42 -149 127 -149c89 0 139 64 139 147c0 72 -43 156 -132 156z" />
    <glyph glyph-name="colon" unicode=":" horiz-adv-x="278" 
d="M192 404h-106v106h106v-106zM192 0h-106v106h106v-106z" />
    <glyph glyph-name="semicolon" unicode=";" horiz-adv-x="278" 
d="M192 404h-106v106h106v-106zM195 106l-84 -239h-84l62 239h106z" />
    <glyph glyph-name="less" unicode="&#x3c;" horiz-adv-x="600" 
d="M554 -8l-508 224v74l508 224v-84l-401 -177l401 -177v-84z" />
    <glyph glyph-name="equal" unicode="=" horiz-adv-x="600" 
d="M553 315h-506v84h506v-84zM553 107h-506v84h506v-84z" />
    <glyph glyph-name="greater" unicode="&#x3e;" horiz-adv-x="600" 
d="M554 216l-508 -224v84l402 177l-402 177v84l508 -224v-74z" />
    <glyph glyph-name="question" unicode="?" horiz-adv-x="473" 
d="M331 348c-37 -42 -66 -77 -66 -136v-17h-87v19c0 69 19 103 65 156c42 48 88 96 88 164c0 73 -51 108 -126 108c-64 0 -119 -16 -155 -38v89c46 18 100 31 164 31c123 0 216 -62 216 -184c0 -82 -49 -134 -99 -192zM168 0v106h106v-106h-106z" />
    <glyph glyph-name="at" unicode="@" horiz-adv-x="800" 
d="M519 138c-32 0 -59 19 -62 58h-3c-27 -28 -67 -58 -114 -58c-83 0 -147 73 -147 161c0 128 87 260 221 260c47 0 87 -21 116 -72l18 56h71l-71 -261c-4 -14 -10 -32 -9 -46c0 -14 5 -25 20 -25c63 0 131 90 131 197c0 160 -126 249 -277 249c-173 0 -291 -133 -291 -302
c0 -192 127 -300 299 -300c92 0 178 37 232 95l42 -40c-68 -78 -168 -122 -277 -122c-216 0 -375 145 -375 368c0 215 160 368 371 368c179 0 344 -119 344 -304c0 -189 -160 -282 -239 -282zM419 481c-78 0 -142 -89 -141 -171c0 -56 32 -95 82 -95c82 0 140 103 140 178
c0 54 -37 88 -81 88z" />
    <glyph glyph-name="A" unicode="A" horiz-adv-x="687" 
d="M590 0l-73 182h-352l-73 -182h-97l301 712h99l297 -712h-102zM342 626l-146 -366h291z" />
    <glyph glyph-name="B" unicode="B" horiz-adv-x="570" 
d="M250 0h-180v712h188c142 0 244 -46 244 -178c0 -97 -54 -146 -144 -168v-4c96 -9 163 -72 163 -170c0 -153 -125 -192 -271 -192zM271 634h-107v-228h63c93 0 181 11 181 119c0 90 -77 109 -137 109zM231 328h-67v-250h78c92 0 180 20 180 120c0 115 -100 130 -191 130z
" />
    <glyph glyph-name="C" unicode="C" horiz-adv-x="630" 
d="M431 -12c-225 0 -390 146 -390 370c0 219 173 366 390 366c52 0 124 -8 172 -29v-95c-45 26 -117 42 -168 42c-169 0 -296 -122 -296 -286c0 -170 136 -286 292 -286c50 0 135 18 173 40v-93c-51 -22 -132 -29 -173 -29z" />
    <glyph glyph-name="D" unicode="D" horiz-adv-x="722" 
d="M296 0h-229v712h239c219 0 373 -134 373 -351c0 -243 -149 -361 -383 -361zM314 630h-153v-548h135c181 0 286 85 286 277c0 178 -118 271 -268 271z" />
    <glyph glyph-name="E" unicode="E" 
d="M71 0v712h429v-82h-335v-220h290v-83h-290v-245h337v-82h-431z" />
    <glyph glyph-name="F" unicode="F" horiz-adv-x="500" 
d="M164 630v-220h273v-83h-273v-327h-94v712h399v-82h-305z" />
    <glyph glyph-name="G" unicode="G" horiz-adv-x="722" 
d="M438 -12c-225 0 -392 146 -392 370c0 219 175 366 393 366c93 0 153 -14 210 -35v-95c-51 31 -121 48 -206 48c-169 0 -298 -123 -298 -286c0 -170 137 -286 294 -286c65 0 100 7 128 15v206h-153v76h247v-346c-46 -16 -119 -33 -223 -33z" />
    <glyph glyph-name="H" unicode="H" horiz-adv-x="722" 
d="M561 0v327h-400v-327h-94v712h94v-302h400v302h94v-712h-94z" />
    <glyph glyph-name="I" unicode="I" horiz-adv-x="243" 
d="M74 0v712h94v-712h-94z" />
    <glyph glyph-name="J" unicode="J" horiz-adv-x="343" 
d="M80 -12c-31 0 -59 4 -80 12v80c21 -7 44 -10 63 -10c90 0 116 55 116 139v503h92v-529c0 -102 -45 -195 -191 -195z" />
    <glyph glyph-name="K" unicode="K" horiz-adv-x="650" 
d="M536 0l-366 366h-4v-366h-93v712h93v-336h4l333 336h121l-342 -335l378 -377h-124z" />
    <glyph glyph-name="L" unicode="L" horiz-adv-x="500" 
d="M70 0v712h94v-630h327v-82h-421z" />
    <glyph glyph-name="M" unicode="M" horiz-adv-x="819" 
d="M659 0v592h-3l-245 -289h-2l-245 289h-4v-592h-94v712h112l233 -282l232 282h110v-712h-94z" />
    <glyph glyph-name="N" unicode="N" horiz-adv-x="759" 
d="M571 0l-406 593h-4v-593h-94v712h127l401 -585h4v585h94v-712h-122z" />
    <glyph glyph-name="O" unicode="O" horiz-adv-x="815" 
d="M407 -12c-219 0 -366 152 -366 368c0 207 144 368 366 368c227 0 367 -161 367 -368c0 -216 -141 -368 -367 -368zM407 642c-171 0 -267 -139 -267 -286c0 -145 98 -286 267 -286c176 0 268 141 268 286c0 147 -93 286 -268 286z" />
    <glyph glyph-name="P" unicode="P" horiz-adv-x="548" 
d="M284 290h-122v-290h-93v712h203c144 0 247 -54 247 -211c0 -152 -107 -211 -235 -211zM277 630h-115v-258h112c73 0 147 28 147 130c0 91 -76 128 -144 128z" />
    <glyph glyph-name="Q" unicode="Q" horiz-adv-x="815" 
d="M548 11l152 -143h-117l-128 122c-16 -1 -32 -2 -48 -2c-219 0 -366 152 -366 368c0 207 144 368 366 368c227 0 367 -161 367 -368c0 -166 -83 -295 -226 -345zM407 642c-171 0 -267 -139 -267 -286c0 -144 98 -286 267 -286c176 0 268 142 268 286
c0 147 -93 286 -268 286z" />
    <glyph glyph-name="R" unicode="R" horiz-adv-x="564" 
d="M438 0l-203 299h-72v-299h-94v712h178c137 0 256 -46 256 -212c0 -81 -61 -176 -166 -188l221 -312h-120zM259 630h-96v-257h82c110 0 159 50 159 125c0 85 -51 132 -145 132z" />
    <glyph glyph-name="S" unicode="S" horiz-adv-x="487" 
d="M194 -12c-54 0 -103 14 -148 29v90c37 -17 104 -37 158 -37c65 0 145 36 145 123c0 39 -19 66 -48 89c-30 24 -70 41 -105 58c-78 39 -157 84 -157 193c0 123 99 191 227 191c44 0 100 -7 148 -25v-89c-47 20 -86 32 -145 32c-61 0 -131 -22 -131 -102
c0 -60 58 -90 124 -122c43 -21 90 -44 125 -77c36 -34 61 -78 61 -144c0 -150 -118 -209 -254 -209z" />
    <glyph glyph-name="T" unicode="T" horiz-adv-x="600" 
d="M347 630v-630h-93v630h-256v82h605v-82h-256z" />
    <glyph glyph-name="U" unicode="U" horiz-adv-x="722" 
d="M362 -12c-160 0 -298 101 -298 303v421h94v-411c0 -134 73 -231 204 -231c130 0 202 97 202 231v411h94v-421c0 -202 -135 -303 -296 -303z" />
    <glyph glyph-name="V" unicode="V" horiz-adv-x="675" 
d="M389 0h-116l-273 712h104l228 -628l3 1l243 627h98z" />
    <glyph glyph-name="W" unicode="W" horiz-adv-x="1037" 
d="M802 0h-121l-160 626h-4l-161 -626h-125l-236 712h103l195 -616h3l158 616h131l160 -616h3l195 616h98z" />
    <glyph glyph-name="X" unicode="X" horiz-adv-x="630" 
d="M521 0l-212 308l-207 -308h-112l261 371l-238 341h113l192 -278l192 278h106l-239 -340l262 -372h-118z" />
    <glyph glyph-name="Y" unicode="Y" horiz-adv-x="634" 
d="M363 299v-299h-94v299l-269 413h110l208 -327l206 327h109z" />
    <glyph glyph-name="Z" unicode="Z" horiz-adv-x="514" 
d="M15 0v85l371 545h-359v82h465v-85l-369 -545h376v-82h-484z" />
    <glyph glyph-name="bracketleft" unicode="[" horiz-adv-x="278" 
d="M255 -140h-183v896h183v-66h-100v-764h100v-66z" />
    <glyph glyph-name="backslash" unicode="\" horiz-adv-x="278" 
d="M304 -12h-84l-246 736h84z" />
    <glyph glyph-name="bracketright" unicode="]" horiz-adv-x="278" 
d="M206 -140h-183v66h100v764h-100v66h183v-896z" />
    <glyph glyph-name="asciicircum" unicode="^" horiz-adv-x="600" 
d="M542 302h-86l-156 323l-156 -323h-86l203 410h78z" />
    <glyph glyph-name="underscore" unicode="_" horiz-adv-x="500" 
d="M500 -125h-500v50h500v-50z" />
    <glyph glyph-name="grave" unicode="`" horiz-adv-x="241" 
d="M198 579h-63l-130 144h103z" />
    <glyph glyph-name="a" unicode="a" horiz-adv-x="522" 
d="M465 0h-78v69h-2c-34 -34 -84 -81 -159 -81c-117 0 -183 63 -183 161c0 142 155 169 224 169c49 0 96 -14 111 -20v39c0 75 -39 113 -124 113c-72 0 -119 -32 -152 -60v75c21 16 86 57 164 57c142 0 199 -69 199 -207v-315zM378 129v107c-13 5 -48 18 -82 18
c-45 0 -159 -10 -159 -105c0 -56 51 -89 97 -89c48 0 112 33 144 69z" />
    <glyph glyph-name="b" unicode="b" horiz-adv-x="611" 
d="M567 248c0 -152 -105 -260 -249 -260c-87 0 -140 48 -171 82h-2v-70h-83v712h87v-274h2c32 45 101 84 168 84c151 0 248 -123 248 -274zM473 253c0 111 -62 197 -167 197c-88 0 -134 -49 -157 -100v-197c27 -40 60 -93 157 -93c107 0 167 88 167 193z" />
    <glyph glyph-name="c" unicode="c" horiz-adv-x="481" 
d="M438 15c-40 -17 -87 -27 -124 -27c-161 0 -272 122 -272 267c0 161 112 267 274 267c43 0 91 -14 116 -24v-80c-36 15 -60 32 -111 32c-118 0 -186 -88 -186 -195c0 -96 68 -195 189 -195c43 0 83 19 114 37v-82z" />
    <glyph glyph-name="d" unicode="d" horiz-adv-x="611" 
d="M548 0h-83v70h-2c-31 -34 -84 -82 -171 -82c-144 0 -249 108 -249 260c0 151 97 274 248 274c67 0 136 -39 168 -84h2v274h87v-712zM461 153v197c-23 51 -69 100 -157 100c-105 0 -167 -86 -167 -197c0 -105 60 -193 167 -193c97 0 130 53 157 93z" />
    <glyph glyph-name="e" unicode="e" horiz-adv-x="556" 
d="M514 235h-380c0 -103 88 -175 181 -175c59 0 142 29 166 48v-88c-38 -14 -94 -32 -170 -32c-179 0 -271 111 -271 274c0 152 103 260 244 260c156 0 230 -109 230 -254v-33zM421 301c0 81 -54 149 -138 149c-92 0 -144 -79 -149 -149h287z" />
    <glyph glyph-name="f" unicode="f" horiz-adv-x="338" 
d="M338 645c-11 5 -49 7 -66 7c-82 0 -88 -73 -88 -115v-27h151v-72h-151v-438h-88v438h-96v72h96v19c0 105 27 195 164 195c23 0 61 -3 78 -7v-72z" />
    <glyph glyph-name="g" unicode="g" horiz-adv-x="611" 
d="M531 47c0 -152 -96 -247 -278 -247c-56 0 -106 10 -177 34v86c65 -31 120 -48 186 -48c107 0 182 71 182 181v21h-2c-37 -37 -96 -74 -168 -74c-149 0 -237 124 -237 252c0 136 91 270 244 270c82 0 133 -39 166 -79h2v67h82v-463zM444 359c-20 46 -72 91 -150 91
c-110 0 -164 -105 -164 -194c0 -97 67 -184 163 -184c69 0 124 41 151 80v207z" />
    <glyph glyph-name="h" unicode="h" horiz-adv-x="556" 
d="M494 0h-88v282c0 113 -23 168 -110 168c-86 0 -122 -57 -144 -93v-357h-88v712h88v-271h2c23 33 78 81 163 81c120 0 177 -74 177 -209v-313z" />
    <glyph glyph-name="i" unicode="i" horiz-adv-x="222" 
d="M155 0h-88v510h88v-510zM159 610h-96v102h96v-102z" />
    <glyph glyph-name="j" unicode="j" horiz-adv-x="222" 
d="M156 -6c0 -75 -7 -192 -138 -192c-21 0 -43 2 -55 4v76c11 -2 21 -3 38 -3c48 0 67 42 67 106v525h88v-516zM159 610h-96v102h96v-102z" />
    <glyph glyph-name="k" unicode="k" horiz-adv-x="512" 
d="M150 0h-88v712h88v-433h2l225 231h110l-236 -232l265 -278h-113l-251 270h-2v-270z" />
    <glyph glyph-name="l" unicode="l" horiz-adv-x="222" 
d="M155 0h-88v712h88v-712z" />
    <glyph glyph-name="m" unicode="m" horiz-adv-x="835" 
d="M773 0h-87v321c0 65 -18 129 -95 129c-72 0 -106 -52 -129 -93v-357h-88v321c0 65 -18 129 -95 129c-74 0 -115 -56 -129 -78v-372h-88v510h82v-71h2c32 41 74 83 156 83c56 0 118 -28 143 -101h2c33 69 100 101 153 101c124 0 173 -72 173 -180v-342z" />
    <glyph glyph-name="n" unicode="n" horiz-adv-x="556" 
d="M494 0h-88v282c0 113 -23 168 -110 168c-86 0 -122 -57 -144 -93v-357h-88v510h88v-69h2c23 33 78 81 163 81c120 0 177 -74 177 -209v-313z" />
    <glyph glyph-name="o" unicode="o" horiz-adv-x="611" 
d="M570 255c0 -145 -102 -267 -265 -267s-265 122 -265 267c0 152 99 267 265 267s265 -115 265 -267zM476 255c0 111 -69 195 -171 195s-171 -84 -171 -195c0 -105 61 -195 171 -195s171 90 171 195z" />
    <glyph glyph-name="p" unicode="p" horiz-adv-x="611" 
d="M567 262c0 -151 -97 -274 -248 -274c-67 0 -134 37 -168 78h-2v-254h-87v698h83v-72h2c31 34 84 84 171 84c144 0 249 -108 249 -260zM473 257c0 105 -60 193 -167 193c-97 0 -130 -51 -157 -91v-202c27 -48 78 -97 157 -97c105 0 167 86 167 197z" />
    <glyph glyph-name="q" unicode="q" horiz-adv-x="611" 
d="M550 -188h-87v257h-2c-32 -45 -101 -81 -168 -81c-151 0 -248 123 -248 274c0 152 100 260 249 260c87 0 140 -49 171 -83h2l8 71h75v-698zM463 156v203c-25 38 -60 91 -157 91c-113 0 -167 -88 -167 -193c0 -111 62 -197 167 -197c88 0 134 49 157 96z" />
    <glyph glyph-name="r" unicode="r" horiz-adv-x="352" 
d="M342 435c-16 6 -35 8 -51 8c-81 0 -120 -46 -146 -96v-347h-88v510h82v-83h2c32 50 87 95 143 95c25 0 40 -3 58 -7v-80z" />
    <glyph glyph-name="s" unicode="s" horiz-adv-x="400" 
d="M360 144c0 -109 -90 -156 -178 -156c-48 0 -97 5 -141 27v83c37 -23 94 -38 126 -38c46 0 99 21 99 76c0 44 -44 66 -93 90c-62 30 -133 62 -133 143c0 105 80 153 178 153c40 0 80 -8 118 -21v-78c-24 13 -84 27 -109 27c-51 0 -94 -20 -94 -66c0 -45 45 -65 95 -88
c62 -29 132 -61 132 -152z" />
    <glyph glyph-name="t" unicode="t" horiz-adv-x="350" 
d="M350 2c-20 -6 -69 -14 -100 -14c-100 0 -148 52 -148 152v298h-92v72h92v119l87 28v-147h152v-72h-152v-289c0 -56 33 -89 77 -89c28 0 69 8 84 16v-74z" />
    <glyph glyph-name="u" unicode="u" horiz-adv-x="556" 
d="M492 0h-84v83h-2c-32 -48 -79 -95 -157 -95c-130 0 -187 84 -187 204v318h88v-283c0 -115 27 -167 110 -167c91 0 127 69 144 105v345h88v-510z" />
    <glyph glyph-name="v" unicode="v" horiz-adv-x="467" 
d="M467 510l-182 -510h-104l-181 510h96l138 -421h2l143 421h88z" />
    <glyph glyph-name="w" unicode="w" horiz-adv-x="778" 
d="M780 510l-165 -510h-102l-124 431h-2l-121 -431h-102l-164 510h96l121 -426h2l122 426h104l119 -426h2l128 426h86z" />
    <glyph glyph-name="x" unicode="x" horiz-adv-x="467" 
d="M469 0h-108l-128 204l-129 -204h-104l183 268l-166 242h110l113 -184l115 184h98l-163 -242z" />
    <glyph glyph-name="y" unicode="y" horiz-adv-x="467" 
d="M199 0l-199 510h97l147 -394h2l132 394h89l-254 -698h-84z" />
    <glyph glyph-name="z" unicode="z" horiz-adv-x="429" 
d="M408 0h-387v76l279 362h-266v72h365v-76l-279 -362h288v-72z" />
    <glyph glyph-name="braceleft" unicode="{" horiz-adv-x="322" 
d="M306 -140h-74c-49 0 -110 43 -110 125v180c0 69 -42 110 -85 110v66c43 0 85 42 85 107v183c0 82 61 125 110 125h74v-66h-53c-39 0 -48 -40 -48 -79v-178c0 -90 -65 -119 -91 -124v-2c26 -4 91 -29 91 -127v-175c0 -39 9 -79 48 -79h53v-66z" />
    <glyph glyph-name="bar" unicode="|" horiz-adv-x="222" 
d="M153 -188h-84v938h84v-938z" />
    <glyph glyph-name="braceright" unicode="}" horiz-adv-x="322" 
d="M285 275c-43 0 -85 -42 -85 -107v-183c0 -82 -61 -125 -110 -125h-74v66h53c39 0 48 40 48 79v178c0 90 65 119 91 124v2c-26 4 -91 29 -91 127v175c0 39 -9 79 -48 79h-53v66h74c49 0 110 -43 110 -125v-180c0 -69 42 -110 85 -110v-66z" />
    <glyph glyph-name="asciitilde" unicode="~" horiz-adv-x="600" 
d="M541 283c-22 -51 -68 -104 -135 -104c-35 0 -74 15 -112 32c-37 17 -74 37 -101 37c-40 0 -66 -37 -83 -64l-51 39c22 51 68 104 135 104c35 0 74 -15 112 -32c37 -17 74 -37 101 -37c40 0 66 37 83 64z" />
    <glyph glyph-name="afii10051" unicode="&#x402;" horiz-adv-x="782" 
d="M501 -139c-30 0 -59 4 -80 12v81c21 -8 44 -11 64 -11c109 0 171 91 171 198c0 114 -64 199 -171 199c-91 0 -138 -51 -162 -103v-237h-92v630h-233v82h599v-82h-274v-290h4c36 43 101 83 171 83c176 0 257 -131 257 -287c0 -157 -105 -275 -254 -275z" />
    <glyph glyph-name="afii10052" unicode="&#x403;" horiz-adv-x="481" 
d="M368 892l-130 -144h-62l89 144h103zM159 630v-630h-94v712h419v-82h-325z" />
    <glyph glyph-name="quotesinglbase" unicode="&#x201a;" horiz-adv-x="278" 
d="M222 106l-83 -239h-83l63 239h103z" />
    <glyph glyph-name="afii10100" unicode="&#x453;" horiz-adv-x="400" 
d="M396 438h-245v-438h-88v510h333v-72zM344 723l-130 -144h-63l90 144h103z" />
    <glyph glyph-name="quotedblbase" unicode="&#x201e;" horiz-adv-x="463" 
d="M408 106l-84 -239h-82l62 239h104zM220 106l-83 -239h-83l63 239h103z" />
    <glyph glyph-name="ellipsis" unicode="&#x2026;" horiz-adv-x="1000" 
d="M886 0h-106v106h106v-106zM553 0h-106v106h106v-106zM220 0h-106v106h106v-106z" />
    <glyph glyph-name="dagger" unicode="&#x2020;" 
d="M478 454h-169v-454h-83v454h-168v66h168v192h83v-192h169v-66z" />
    <glyph glyph-name="daggerdbl" unicode="&#x2021;" 
d="M478 250v-66h-169v-184h-83v184h-168v66h168v224h-168v66h168v172h83v-172h169v-66h-169v-224h169z" />
    <glyph glyph-name="perthousand" unicode="&#x2030;" horiz-adv-x="1000" 
d="M505 -11c-115 0 -153 96 -153 200c0 110 33 202 153 202c121 0 155 -92 155 -202c0 -104 -38 -200 -155 -200zM144 -22h-70l437 756h69zM154 321c-116 0 -154 96 -154 202c0 109 32 200 154 200c120 0 153 -92 153 -200c0 -106 -38 -202 -153 -202zM505 324
c-66 0 -70 -88 -70 -135c0 -45 5 -134 70 -134c66 0 72 89 72 134c0 50 -1 135 -72 135zM154 657c-68 0 -71 -88 -71 -134c0 -47 5 -135 71 -135c65 0 70 88 70 135c0 48 -1 134 -70 134zM843 -11c-115 0 -153 96 -153 200c0 110 33 202 153 202c121 0 155 -92 155 -202
c0 -104 -38 -200 -155 -200zM843 324c-66 0 -70 -88 -70 -135c0 -45 5 -134 70 -134c66 0 72 89 72 134c0 50 -1 135 -72 135z" />
    <glyph glyph-name="afii10058" unicode="&#x409;" horiz-adv-x="981" 
d="M710 0h-209v630h-233v-211c0 -187 -11 -430 -189 -430c-31 0 -60 4 -81 12l1 80c21 -7 44 -10 63 -10c106 0 112 223 112 384v257h421v-291h126c129 0 236 -58 236 -210c0 -157 -103 -211 -247 -211zM712 340h-117v-258h119c69 0 145 37 145 128c0 102 -74 130 -147 130z
" />
    <glyph glyph-name="guilsinglleft" unicode="&#x2039;" horiz-adv-x="278" 
d="M245 66h-83l-142 203l142 203h83l-131 -203z" />
    <glyph glyph-name="afii10059" unicode="&#x40a;" horiz-adv-x="981" 
d="M710 0h-214v339h-334v-339h-94v712h94v-291h334v291h94v-291h131c129 0 236 -58 236 -210c0 -157 -103 -211 -247 -211zM712 340h-122v-258h124c69 0 145 37 145 128c0 102 -74 130 -147 130z" />
    <glyph glyph-name="afii10061" unicode="&#x40c;" horiz-adv-x="650" 
d="M438 892l-130 -144h-62l89 144h103zM536 0l-366 366h-4v-366h-93v712h93v-336h4l333 336h121l-342 -335l378 -377h-124z" />
    <glyph glyph-name="afii10060" unicode="&#x40b;" horiz-adv-x="782" 
d="M645 0v174c0 133 -38 176 -169 176c-22 0 -135 -9 -153 -15v-335h-92v630h-233v82h599v-82h-274v-214c16 6 130 17 153 17c161 0 262 -48 262 -249v-184h-93z" />
    <glyph glyph-name="afii10145" unicode="&#x40f;" horiz-adv-x="722" 
d="M406 0v-163h-90v163h-249v712h94v-629h400v629h94v-712h-249z" />
    <glyph glyph-name="afii10099" unicode="&#x452;" horiz-adv-x="574" 
d="M549 112c0 -128 -81 -262 -239 -262c-21 0 -43 2 -55 4v76c11 -2 21 -3 38 -3c96 0 163 92 163 189c0 89 -44 177 -164 177c-59 0 -104 -27 -130 -61v-232h-88v438h-54v72h54v202h88v-202h259v-72h-259v-136c29 33 78 63 143 63c159 0 244 -117 244 -253z" />
    <glyph glyph-name="quoteleft" unicode="&#x2018;" horiz-adv-x="278" 
d="M222 712l-62 -240h-104l83 240h83z" />
    <glyph glyph-name="quoteright" unicode="&#x2019;" horiz-adv-x="278" 
d="M222 712l-86 -240h-80l61 240h105z" />
    <glyph glyph-name="quotedblleft" unicode="&#x201c;" horiz-adv-x="463" 
d="M408 712l-63 -240h-103l82 240h84zM220 712l-61 -240h-105l85 240h81z" />
    <glyph glyph-name="quotedblright" unicode="&#x201d;" horiz-adv-x="463" 
d="M408 712l-84 -240h-82l62 240h104zM220 712l-83 -240h-83l63 240h103z" />
    <glyph glyph-name="bullet" unicode="&#x2022;" horiz-adv-x="500" 
d="M250 523c97 0 175 -77 175 -174c0 -98 -78 -175 -175 -175s-174 77 -174 175c0 97 77 174 174 174z" />
    <glyph glyph-name="endash" unicode="&#x2013;" horiz-adv-x="500" 
d="M500 236h-500v66h500v-66z" />
    <glyph glyph-name="emdash" unicode="&#x2014;" horiz-adv-x="1000" 
d="M1000 236h-1000v66h1000v-66z" />
    <glyph glyph-name="trademark" unicode="&#x2122;" horiz-adv-x="1000" 
d="M822 301h-58v354l-127 -114h-2l-126 113v-353h-58v411h73l113 -104l112 104h73v-411zM406 662h-128v-361h-58v361h-128v50h314v-50z" />
    <glyph glyph-name="afii10106" unicode="&#x459;" horiz-adv-x="833" 
d="M806 155c0 -100 -69 -155 -171 -155h-240v438h-178v-145c0 -130 -9 -301 -158 -301c-19 0 -43 4 -53 7v77c7 -3 30 -7 48 -7c64 0 75 68 75 294v147h354v-205h155c92 0 168 -45 168 -150zM712 152c0 65 -41 81 -92 81h-137v-161h143c54 0 86 26 86 80z" />
    <glyph glyph-name="guilsinglright" unicode="&#x203a;" horiz-adv-x="278" 
d="M258 269l-142 -203h-82l130 203l-130 203h82z" />
    <glyph glyph-name="afii10107" unicode="&#x45a;" horiz-adv-x="833" 
d="M806 155c0 -100 -69 -155 -171 -155h-240v234h-245v-234h-88v510h88v-205h245v205h88v-205h155c92 0 168 -45 168 -150zM712 152c0 65 -41 81 -92 81h-137v-161h143c54 0 86 26 86 80z" />
    <glyph glyph-name="afii10109" unicode="&#x45c;" horiz-adv-x="512" 
d="M153 0h-88v510h88v-235h2l227 235h110l-239 -237l267 -273h-113l-252 264h-2v-264zM384 723l-130 -144h-63l90 144h103z" />
    <glyph glyph-name="afii10108" unicode="&#x45b;" horiz-adv-x="556" 
d="M504 0h-88v132c0 113 -23 168 -110 168c-86 0 -122 -57 -144 -93v-207h-88v438h-54v72h54v202h88v-202h259v-72h-259v-147h2c23 33 78 81 163 81c120 0 177 -74 177 -209v-163z" />
    <glyph glyph-name="afii10193" unicode="&#x45f;" horiz-adv-x="556" 
d="M320 -150h-84v150h-174v510h88v-438h256v438h88v-510h-174v-150z" />
    <glyph glyph-name="nbspace" horiz-adv-x="278" 
 />
    <glyph glyph-name="afii10062" unicode="&#x40e;" horiz-adv-x="604" 
d="M247 0h-98l100 200l-250 512h108l194 -410l205 410h101zM441 848c-19 -72 -68 -112 -139 -112c-70 0 -119 40 -138 112l65 20c10 -44 32 -63 72 -63s65 19 75 63z" />
    <glyph glyph-name="afii10110" unicode="&#x45e;" horiz-adv-x="467" 
d="M199 0l-199 510h97l147 -394h2l132 394h89l-254 -698h-84zM380 692c-19 -72 -68 -112 -139 -112c-70 0 -119 40 -138 112l65 20c10 -44 32 -63 72 -63s65 19 75 63z" />
    <glyph glyph-name="afii10057" unicode="&#x408;" horiz-adv-x="343" 
d="M80 -12c-31 0 -59 4 -80 12v80c21 -7 44 -10 63 -10c90 0 116 55 116 139v503h92v-529c0 -102 -45 -195 -191 -195z" />
    <glyph glyph-name="currency" unicode="&#xa4;" horiz-adv-x="556" 
d="M531 145l-49 -49l-54 56c-38 -33 -93 -51 -150 -51c-56 0 -110 17 -149 51l-55 -56l-49 49l56 57c-34 40 -51 91 -51 147c0 54 15 110 51 149l-56 54l49 50l55 -55c39 32 96 50 149 50c56 0 110 -18 150 -50l54 55l49 -50l-54 -54c33 -37 49 -93 49 -149
c0 -54 -16 -108 -49 -147zM278 519c-92 0 -164 -78 -164 -170c0 -95 73 -170 164 -170c95 1 164 80 164 170s-70 171 -164 170z" />
    <glyph glyph-name="afii10050" unicode="&#x490;" horiz-adv-x="481" 
d="M159 630v-630h-94v712h330v163h90v-245h-326z" />
    <glyph glyph-name="brokenbar" unicode="&#xa6;" horiz-adv-x="222" 
d="M153 450h-84v300h84v-300zM153 -188h-84v300h84v-300z" />
    <glyph glyph-name="section" unicode="&#xa7;" 
d="M398 169c40 -26 66 -69 66 -117c0 -129 -130 -178 -230 -178c-53 0 -107 6 -160 25v91c49 -25 115 -35 173 -35c59 0 123 29 123 94c0 60 -105 83 -153 101c-76 28 -151 66 -151 161c0 58 25 97 75 127c-47 26 -71 69 -71 122c0 112 114 164 213 164c50 0 90 -7 139 -19
v-91c-37 16 -86 28 -126 28c-48 0 -132 -12 -132 -78c0 -32 19 -52 48 -68c93 -51 259 -57 259 -198c0 -61 -28 -91 -73 -129zM308 366c-38 17 -79 27 -116 45c-27 -21 -39 -46 -39 -80c0 -83 137 -105 192 -130c20 23 38 44 38 77c0 44 -34 70 -75 88z" />
    <glyph glyph-name="afii10023" unicode="&#x401;" 
d="M422 771h-90v97h90v-97zM237 771h-90v97h90v-97zM71 0v712h429v-82h-335v-220h290v-83h-290v-245h337v-82h-431z" />
    <glyph glyph-name="copyright" unicode="&#xa9;" horiz-adv-x="800" 
d="M400 -11c-202 0 -366 165 -366 368s164 367 366 367s367 -164 367 -367s-165 -368 -367 -368zM400 660c-166 0 -302 -136 -302 -303s136 -304 302 -304c167 0 302 137 302 304s-135 303 -302 303zM422 141c-135 0 -223 85 -223 218c0 128 93 214 223 214
c34 0 61 -5 91 -18v-54c-28 15 -57 22 -89 22c-99 0 -165 -69 -165 -166c0 -100 71 -166 162 -166c31 0 72 8 96 20v-55c-31 -12 -68 -15 -95 -15z" />
    <glyph glyph-name="afii10053" unicode="&#x404;" horiz-adv-x="635" 
d="M424 -12c-224 0 -379 146 -379 370c0 219 163 366 379 366c53 0 120 -8 168 -29v-95c-45 26 -112 42 -163 42c-150 0 -258 -95 -282 -232h316v-83h-319c14 -155 134 -257 280 -257c51 0 131 15 169 37v-93c-51 -22 -127 -26 -169 -26z" />
    <glyph glyph-name="guillemotleft" unicode="&#xab;" horiz-adv-x="500" 
d="M460 66h-82l-142 203l142 203h82l-130 -203zM264 66h-83l-142 203l142 203h83l-131 -203z" />
    <glyph glyph-name="logicalnot" unicode="&#xac;" horiz-adv-x="600" 
d="M553 106h-84v209h-422v84h506v-293z" />
    <glyph glyph-name="registered" unicode="&#xae;" horiz-adv-x="400" 
d="M381 544c0 -99 -81 -181 -181 -181c-99 0 -180 81 -180 181c0 99 80 180 180 180c99 0 181 -80 181 -180zM347 544h1c0 81 -66 148 -148 148c-81 0 -147 -66 -147 -148c0 -81 66 -148 147 -148s147 66 147 148zM233 591h1c0 20 -18 31 -44 31h-27v-64h23
c27 0 47 11 47 33zM224 539l57 -98h-33l-53 93c-5 -1 -9 -1 -13 -1h-18v-92h-30v206h49c40 0 81 -6 81 -55c0 -29 -17 -45 -40 -53z" />
    <glyph glyph-name="afii10056" unicode="&#x407;" horiz-adv-x="243" 
d="M90 771h-96v102h96v-102zM250 771h-96v102h96v-102zM74 0v712h94v-712h-94z" />
    <glyph glyph-name="degree" unicode="&#xb0;" horiz-adv-x="400" 
d="M346 579c0 -81 -66 -144 -146 -144s-146 63 -146 144s66 144 146 144s146 -63 146 -144zM285 579c0 48 -38 83 -85 83s-85 -35 -85 -83c0 -47 39 -84 85 -84s85 37 85 84z" />
    <glyph glyph-name="plusminus" unicode="&#xb1;" horiz-adv-x="600" 
d="M553 271h-211v-152h-84v152h-211v84h211v151h84v-151h211v-84zM553 0h-506v84h506v-84z" />
    <glyph glyph-name="afii10055" unicode="&#x406;" horiz-adv-x="243" 
d="M74 0v712h94v-712h-94z" />
    <glyph glyph-name="afii10103" unicode="&#x456;" horiz-adv-x="222" 
d="M155 0h-88v510h88v-510zM159 610h-96v102h96v-102z" />
    <glyph glyph-name="afii10098" unicode="&#x491;" horiz-adv-x="400" 
d="M396 438h-245v-438h-88v510h249v150h84v-222z" />
    <glyph glyph-name="mu" unicode="&#xb5;" horiz-adv-x="556" 
d="M498 0h-84v83h-2c-34 -44 -99 -95 -157 -95s-94 32 -109 50v-226h-88v698h88v-383c19 -31 46 -67 110 -67c69 0 124 53 154 105v345h88v-510z" />
    <glyph glyph-name="mu" unicode="&#x3bc;" horiz-adv-x="556" 
d="M498 0h-84v83h-2c-34 -44 -99 -95 -157 -95s-94 32 -109 50v-226h-88v698h88v-383c19 -31 46 -67 110 -67c69 0 124 53 154 105v345h88v-510z" />
    <glyph glyph-name="paragraph" unicode="&#xb6;" horiz-adv-x="600" 
d="M449 -114v756h-99v-756h-88v455c-136 0 -220 75 -220 182c0 138 97 189 240 189h255v-826h-88z" />
    <glyph glyph-name="periodcentered" unicode="&#xb7;" horiz-adv-x="278" 
d="M192 236h-106v106h106v-106z" />
    <glyph glyph-name="periodcentered" unicode="&#x2219;" horiz-adv-x="278" 
d="M192 236h-106v106h106v-106z" />
    <glyph glyph-name="afii10071" unicode="&#x451;" horiz-adv-x="556" 
d="M514 235h-380c0 -103 88 -175 181 -175c59 0 142 29 166 48v-88c-38 -14 -94 -32 -170 -32c-179 0 -271 111 -271 274c0 152 103 260 244 260c156 0 230 -109 230 -254v-33zM421 301c0 81 -54 149 -138 149c-92 0 -144 -79 -149 -149h287zM413 615h-90v97h90v-97z
M228 615h-90v97h90v-97z" />
    <glyph glyph-name="afii61352" unicode="&#x2116;" horiz-adv-x="1090" 
d="M865 154c-104 0 -166 73 -166 159c0 92 61 159 166 159s166 -67 166 -159c0 -86 -62 -159 -166 -159zM693 0v77h344v-77h-344zM507 0l-329 593h-3v-593h-94v712h127l323 -585h4v585h94v-712h-122zM865 412c-57 0 -86 -44 -86 -99c0 -54 24 -98 86 -98c63 0 85 44 85 98
c0 55 -28 99 -85 99z" />
    <glyph glyph-name="afii10101" unicode="&#x454;" horiz-adv-x="481" 
d="M439 15c-40 -17 -87 -27 -124 -27c-161 0 -272 122 -272 267c0 161 112 267 274 267c43 0 91 -14 116 -24v-80c-36 15 -60 32 -111 32c-100 0 -164 -63 -181 -147h207v-72h-211c11 -88 77 -171 188 -171c43 0 83 19 114 37v-82z" />
    <glyph glyph-name="guillemotright" unicode="&#xbb;" horiz-adv-x="500" 
d="M460 269l-142 -203h-83l131 203l-131 203h83zM263 269l-142 -203h-82l130 203l-130 203h82z" />
    <glyph glyph-name="afii10105" unicode="&#x458;" horiz-adv-x="222" 
d="M156 -6c0 -75 -7 -192 -138 -192c-21 0 -43 2 -55 4v76c11 -2 21 -3 38 -3c48 0 67 42 67 106v525h88v-516zM159 610h-96v102h96v-102z" />
    <glyph glyph-name="afii10054" unicode="&#x405;" horiz-adv-x="487" 
d="M194 -12c-54 0 -103 14 -148 29v90c37 -17 104 -37 158 -37c65 0 145 36 145 123c0 39 -19 66 -48 89c-30 24 -70 41 -105 58c-78 39 -157 84 -157 193c0 123 99 191 227 191c44 0 100 -7 148 -25v-89c-47 20 -86 32 -145 32c-61 0 -131 -22 -131 -102
c0 -60 58 -90 124 -122c43 -21 90 -44 125 -77c36 -34 61 -78 61 -144c0 -150 -118 -209 -254 -209z" />
    <glyph glyph-name="afii10102" unicode="&#x455;" horiz-adv-x="400" 
d="M360 144c0 -109 -90 -156 -178 -156c-48 0 -97 5 -141 27v83c37 -23 94 -38 126 -38c46 0 99 21 99 76c0 44 -44 66 -93 90c-62 30 -133 62 -133 143c0 105 80 153 178 153c40 0 80 -8 118 -21v-78c-24 13 -84 27 -109 27c-51 0 -94 -20 -94 -66c0 -45 45 -65 95 -88
c62 -29 132 -61 132 -152z" />
    <glyph glyph-name="afii10104" unicode="&#x457;" horiz-adv-x="222" 
d="M156 0h-88v510h88v-510zM79 610h-96v102h96v-102zM239 610h-96v102h96v-102z" />
    <glyph glyph-name="afii10017" unicode="&#x410;" horiz-adv-x="687" 
d="M590 0l-73 182h-352l-73 -182h-97l301 712h99l297 -712h-102zM342 626l-146 -366h291z" />
    <glyph glyph-name="afii10018" unicode="&#x411;" horiz-adv-x="570" 
d="M252 0h-183v712h397v-82h-303v-215h102c135 0 254 -51 254 -208c0 -159 -121 -207 -267 -207zM264 333h-101v-251h91c69 0 167 29 167 125c0 101 -85 126 -157 126z" />
    <glyph glyph-name="afii10019" unicode="&#x412;" horiz-adv-x="570" 
d="M250 0h-180v712h188c142 0 244 -46 244 -178c0 -97 -54 -146 -144 -168v-4c96 -9 163 -72 163 -170c0 -153 -125 -192 -271 -192zM271 634h-107v-228h63c93 0 181 11 181 119c0 90 -77 109 -137 109zM231 328h-67v-250h78c92 0 180 20 180 120c0 115 -100 130 -191 130z
" />
    <glyph glyph-name="afii10020" unicode="&#x413;" horiz-adv-x="481" 
d="M159 630v-630h-94v712h419v-82h-325z" />
    <glyph glyph-name="afii10021" unicode="&#x414;" horiz-adv-x="702" 
d="M607 -163v163h-514v-163h-90v245h74c56 63 99 254 109 416l13 214h416v-630h82v-245h-90zM521 630h-234l-13 -168c-11 -141 -44 -297 -89 -380h336v548z" />
    <glyph glyph-name="afii10022" unicode="&#x415;" 
d="M71 0v712h429v-82h-335v-220h290v-83h-290v-245h337v-82h-431z" />
    <glyph glyph-name="afii10024" unicode="&#x416;" horiz-adv-x="977" 
d="M870 0l-330 367h-3v-367h-94v367h-4l-329 -367h-120l337 378l-305 334h116l301 -338h4v338h94v-338h3l301 338h117l-305 -334l336 -378h-119z" />
    <glyph glyph-name="afii10025" unicode="&#x417;" horiz-adv-x="500" 
d="M181 -12c-54 0 -105 15 -148 32v89c36 -18 107 -38 158 -38c84 0 158 38 158 123c0 110 -85 136 -175 136h-30v79h26c75 0 173 38 173 131c0 77 -55 102 -128 102c-51 0 -103 -14 -151 -35v83c40 18 101 34 155 34c124 0 219 -51 219 -182c0 -89 -56 -151 -139 -168v-4
c95 -16 149 -73 149 -172c0 -143 -119 -210 -267 -210z" />
    <glyph glyph-name="afii10026" unicode="&#x418;" horiz-adv-x="722" 
d="M560 0v570h-3l-390 -570h-99v712h94v-573h3l391 573h98v-712h-94z" />
    <glyph glyph-name="afii10027" unicode="&#x419;" horiz-adv-x="722" 
d="M560 0v569h-3l-390 -569h-99v712h94v-573h3l391 573h98v-712h-94zM502 848c-20 -72 -69 -112 -139 -112s-119 40 -139 112l65 20c11 -44 33 -63 73 -63s64 19 75 63z" />
    <glyph glyph-name="afii10028" unicode="&#x41a;" horiz-adv-x="650" 
d="M536 0l-366 366h-4v-366h-93v712h93v-336h4l333 336h121l-342 -335l378 -377h-124z" />
    <glyph glyph-name="afii10029" unicode="&#x41b;" horiz-adv-x="704" 
d="M542 0v630h-274v-211c0 -187 -11 -430 -189 -430c-31 0 -60 4 -81 12l1 80c21 -7 44 -10 63 -10c106 0 112 223 112 384v257h462v-712h-94z" />
    <glyph glyph-name="afii10030" unicode="&#x41c;" horiz-adv-x="819" 
d="M659 0v592h-3l-245 -289h-2l-245 289h-4v-592h-94v712h112l233 -282l232 282h110v-712h-94z" />
    <glyph glyph-name="afii10031" unicode="&#x41d;" horiz-adv-x="722" 
d="M561 0v327h-400v-327h-94v712h94v-302h400v302h94v-712h-94z" />
    <glyph glyph-name="afii10032" unicode="&#x41e;" horiz-adv-x="815" 
d="M407 -12c-219 0 -366 152 -366 368c0 207 144 368 366 368c227 0 367 -161 367 -368c0 -216 -141 -368 -367 -368zM407 642c-171 0 -267 -139 -267 -286c0 -145 98 -286 267 -286c176 0 268 141 268 286c0 147 -93 286 -268 286z" />
    <glyph glyph-name="afii10033" unicode="&#x41f;" horiz-adv-x="722" 
d="M561 0v629h-400v-629h-94v712h588v-712h-94z" />
    <glyph glyph-name="afii10034" unicode="&#x420;" horiz-adv-x="548" 
d="M284 290h-122v-290h-93v712h203c144 0 247 -54 247 -211c0 -152 -107 -211 -235 -211zM277 630h-115v-258h112c73 0 147 28 147 130c0 91 -76 128 -144 128z" />
    <glyph glyph-name="afii10035" unicode="&#x421;" horiz-adv-x="630" 
d="M431 -12c-225 0 -390 146 -390 370c0 219 173 366 390 366c52 0 124 -8 172 -29v-95c-45 26 -117 42 -168 42c-169 0 -296 -122 -296 -286c0 -170 136 -286 292 -286c50 0 135 18 173 40v-93c-51 -22 -132 -29 -173 -29z" />
    <glyph glyph-name="afii10036" unicode="&#x422;" horiz-adv-x="600" 
d="M347 630v-630h-93v630h-256v82h605v-82h-256z" />
    <glyph glyph-name="afii10037" unicode="&#x423;" horiz-adv-x="604" 
d="M247 0h-98l100 200l-253 512h107l198 -410l205 410h101z" />
    <glyph glyph-name="afii10038" unicode="&#x424;" horiz-adv-x="800" 
d="M447 73v-81h-93v81c-176 3 -315 125 -315 295c0 180 130 290 315 295v56h93v-56c185 -5 315 -115 315 -295c0 -170 -139 -292 -315 -295zM447 590v-444c136 2 217 95 217 222c0 124 -81 218 -217 222zM354 590c-136 -4 -217 -98 -217 -222c0 -127 81 -220 217 -222v444z
" />
    <glyph glyph-name="afii10039" unicode="&#x425;" horiz-adv-x="630" 
d="M521 0l-212 308l-207 -308h-112l261 371l-238 341h113l192 -278l192 278h106l-239 -340l262 -372h-118z" />
    <glyph glyph-name="afii10040" unicode="&#x426;" horiz-adv-x="722" 
d="M625 -163v163h-556v712h94v-630h387v630h94v-630h71v-245h-90z" />
    <glyph glyph-name="afii10041" unicode="&#x427;" horiz-adv-x="617" 
d="M456 0v303c-15 -6 -129 -17 -153 -17c-161 0 -262 48 -262 249v174h94v-164c0 -133 38 -176 168 -176c22 0 136 10 153 15v328h94v-712h-94z" />
    <glyph glyph-name="afii10042" unicode="&#x428;" horiz-adv-x="1057" 
d="M69 0v712h94v-630h319v630h94v-630h319v630h94v-712h-920z" />
    <glyph glyph-name="afii10043" unicode="&#x429;" horiz-adv-x="1065" 
d="M970 -163v163h-901v712h94v-630h319v630h94v-630h319v630h94v-630h71v-245h-90z" />
    <glyph glyph-name="afii10044" unicode="&#x42a;" horiz-adv-x="692" 
d="M426 0h-214v630h-211v82h305v-280h132c128 0 235 -63 235 -216c0 -157 -103 -216 -247 -216zM428 350h-122v-268h124c69 0 145 42 145 133c0 102 -74 135 -147 135z" />
    <glyph glyph-name="afii10045" unicode="&#x42b;" horiz-adv-x="805" 
d="M645 0v712h94v-712h-94zM280 0h-214v712h94v-280h131c128 0 236 -63 236 -216c0 -157 -104 -216 -247 -216zM282 350h-122v-268h124c68 0 145 42 145 133c0 102 -75 135 -147 135z" />
    <glyph glyph-name="afii10046" unicode="&#x42c;" horiz-adv-x="556" 
d="M283 0h-214v712h94v-280h131c128 0 236 -63 236 -216c0 -157 -104 -216 -247 -216zM285 350h-122v-268h124c68 0 145 42 145 133c0 102 -75 135 -147 135z" />
    <glyph glyph-name="afii10047" unicode="&#x42d;" horiz-adv-x="635" 
d="M211 -12c-41 0 -117 4 -168 26v93c38 -22 118 -37 168 -37c147 0 267 102 281 257h-319v83h315c-23 137 -132 232 -281 232c-51 0 -118 -16 -163 -42v95c48 21 115 29 167 29c217 0 380 -147 380 -366c0 -224 -155 -370 -380 -370z" />
    <glyph glyph-name="afii10048" unicode="&#x42e;" horiz-adv-x="991" 
d="M613 -12c-203 0 -323 138 -335 339h-116v-327h-94v712h94v-302h118c20 182 138 314 333 314c216 0 337 -161 337 -368c0 -216 -122 -368 -337 -368zM613 642c-160 0 -237 -140 -237 -286c0 -144 72 -286 237 -286c166 0 238 142 238 286c0 146 -78 286 -238 286z" />
    <glyph glyph-name="afii10049" unicode="&#x42f;" horiz-adv-x="575" 
d="M416 0v290h-77l-223 -290h-120l242 304c-106 12 -172 111 -172 192c0 166 119 216 256 216h188v-712h-94zM416 630h-106c-94 0 -145 -51 -145 -136c0 -75 54 -129 165 -129h86v265z" />
    <glyph glyph-name="afii10065" unicode="&#x430;" horiz-adv-x="522" 
d="M465 0h-78v69h-2c-34 -34 -84 -81 -159 -81c-117 0 -183 63 -183 161c0 142 155 169 224 169c49 0 96 -14 111 -20v39c0 75 -39 113 -124 113c-72 0 -119 -32 -152 -60v75c21 16 86 57 164 57c142 0 199 -69 199 -207v-315zM378 129v107c-13 5 -48 18 -82 18
c-45 0 -159 -10 -159 -105c0 -56 51 -89 97 -89c48 0 112 33 144 69z" />
    <glyph glyph-name="afii10066" unicode="&#x431;" horiz-adv-x="611" 
d="M569 250c0 -143 -100 -262 -260 -262s-260 122 -260 294c0 276 69 416 334 425c22 1 118 7 140 16v-89c-27 -7 -103 -11 -135 -12c-177 -6 -260 -64 -270 -240h4c20 63 95 128 197 128c152 0 250 -111 250 -260zM475 250c0 109 -67 190 -166 190s-166 -81 -166 -190
c0 -103 60 -190 166 -190s166 87 166 190z" />
    <glyph glyph-name="afii10067" unicode="&#x432;" horiz-adv-x="522" 
d="M484 141c0 -95 -88 -141 -179 -141h-247v510h231c100 0 171 -50 171 -125c0 -67 -53 -104 -87 -113v-2c35 -3 111 -35 111 -129zM366 373c0 44 -42 65 -94 65h-126v-139h126c48 0 94 19 94 74zM390 155c0 51 -43 74 -101 74h-143v-157h147c50 0 97 19 97 83z" />
    <glyph glyph-name="afii10068" unicode="&#x433;" horiz-adv-x="400" 
d="M396 438h-245v-438h-88v510h333v-72z" />
    <glyph glyph-name="afii10069" unicode="&#x434;" horiz-adv-x="580" 
d="M566 -150h-84v150h-388v-150h-84v222h60c28 35 59 137 66 290l7 148h363v-438h60v-222zM418 72v366h-193l-4 -93c-5 -108 -28 -224 -57 -273h254z" />
    <glyph glyph-name="afii10070" unicode="&#x435;" horiz-adv-x="556" 
d="M514 235h-380c0 -103 88 -175 181 -175c59 0 142 29 166 48v-88c-38 -14 -94 -32 -170 -32c-179 0 -271 111 -271 274c0 152 103 260 244 260c156 0 230 -109 230 -254v-33zM421 301c0 81 -54 149 -138 149c-92 0 -144 -79 -149 -149h287z" />
    <glyph glyph-name="afii10072" unicode="&#x436;" horiz-adv-x="738" 
d="M325 271h-2l-226 -271h-104l235 278l-220 232h105l210 -232h2v232h88v-232h2l210 232h105l-220 -232l235 -278h-104l-226 271h-2v-271h-88v271z" />
    <glyph glyph-name="afii10073" unicode="&#x437;" horiz-adv-x="454" 
d="M399 149c0 -102 -91 -161 -206 -161c-57 0 -117 5 -160 27v81c37 -23 103 -36 144 -36c76 0 129 33 129 88c0 66 -47 85 -100 85h-56v71h52c50 0 97 24 97 77c0 49 -48 69 -105 69c-47 0 -115 -22 -141 -40v80c37 15 100 32 158 32c99 0 178 -40 178 -130
c0 -63 -51 -109 -108 -120v-1c62 -2 118 -42 118 -122z" />
    <glyph glyph-name="afii10074" unicode="&#x438;" horiz-adv-x="556" 
d="M498 0h-88v394h-3l-247 -394h-102v510h88v-393h3l247 393h102v-510z" />
    <glyph glyph-name="afii10075" unicode="&#x439;" horiz-adv-x="556" 
d="M423 692c-19 -72 -68 -112 -139 -112c-70 0 -119 40 -138 112l65 20c10 -44 32 -63 72 -63s65 19 75 63zM498 0h-88v394h-3l-247 -394h-102v510h88v-393h3l247 393h102v-510z" />
    <glyph glyph-name="afii10076" unicode="&#x43a;" horiz-adv-x="512" 
d="M153 0h-88v510h88v-235h2l227 235h110l-239 -237l267 -273h-113l-252 264h-2v-264z" />
    <glyph glyph-name="afii10077" unicode="&#x43b;" horiz-adv-x="556" 
d="M493 0h-88v438h-188v-145c0 -130 -9 -301 -158 -301c-19 0 -43 4 -53 7v77c7 -3 30 -7 48 -7c64 0 75 68 75 294v147h364v-510z" />
    <glyph glyph-name="afii10078" unicode="&#x43c;" horiz-adv-x="638" 
d="M576 0h-87v400h-2l-167 -196h-1l-168 196h-1v-400h-88v510h101l156 -191h1l155 191h101v-510z" />
    <glyph glyph-name="afii10079" unicode="&#x43d;" horiz-adv-x="556" 
d="M494 0h-88v233h-256v-233h-88v510h88v-206h256v206h88v-510z" />
    <glyph glyph-name="afii10080" unicode="&#x43e;" horiz-adv-x="611" 
d="M570 255c0 -145 -102 -267 -265 -267s-265 122 -265 267c0 152 99 267 265 267s265 -115 265 -267zM476 255c0 111 -69 195 -171 195s-171 -84 -171 -195c0 -105 61 -195 171 -195s171 90 171 195z" />
    <glyph glyph-name="afii10081" unicode="&#x43f;" horiz-adv-x="556" 
d="M494 0h-88v438h-256v-438h-88v510h432v-510z" />
    <glyph glyph-name="afii10082" unicode="&#x440;" horiz-adv-x="611" 
d="M567 262c0 -151 -97 -274 -248 -274c-67 0 -134 37 -168 78h-2v-254h-87v698h83v-72h2c31 34 84 84 171 84c144 0 249 -108 249 -260zM473 257c0 105 -60 193 -167 193c-97 0 -130 -51 -157 -91v-202c27 -48 78 -97 157 -97c105 0 167 86 167 197z" />
    <glyph glyph-name="afii10083" unicode="&#x441;" horiz-adv-x="481" 
d="M438 15c-40 -17 -87 -27 -124 -27c-161 0 -272 122 -272 267c0 161 112 267 274 267c43 0 91 -14 116 -24v-80c-36 15 -60 32 -111 32c-118 0 -186 -88 -186 -195c0 -96 68 -195 189 -195c43 0 83 19 114 37v-82z" />
    <glyph glyph-name="afii10084" unicode="&#x442;" horiz-adv-x="444" 
d="M440 438h-174v-438h-88v438h-174v72h436v-72z" />
    <glyph glyph-name="afii10085" unicode="&#x443;" horiz-adv-x="467" 
d="M199 0l-199 510h97l147 -394h2l132 394h89l-254 -698h-84z" />
    <glyph glyph-name="afii10086" unicode="&#x444;" horiz-adv-x="722" 
d="M680 255c0 -144 -114 -267 -275 -267v-176h-88v176c-161 0 -275 123 -275 267c0 151 108 267 275 267v190h88v-190c167 0 275 -116 275 -267zM586 255c0 100 -69 199 -181 199v-398c118 0 181 104 181 199zM317 56v398c-112 0 -181 -99 -181 -199c0 -95 63 -199 181 -199
z" />
    <glyph glyph-name="afii10087" unicode="&#x445;" horiz-adv-x="467" 
d="M469 0h-108l-128 204l-129 -204h-104l183 268l-166 242h110l113 -184l115 184h98l-163 -242z" />
    <glyph glyph-name="afii10088" unicode="&#x446;" horiz-adv-x="579" 
d="M569 -150h-84v150h-423v510h88v-438h264v438h88v-438h67v-222z" />
    <glyph glyph-name="afii10089" unicode="&#x447;" horiz-adv-x="522" 
d="M460 0h-88v215c-19 -9 -86 -26 -135 -26c-130 0 -187 53 -187 185v136h88v-110c0 -87 12 -139 116 -139c48 0 102 14 118 23v226h88v-510z" />
    <glyph glyph-name="afii10090" unicode="&#x448;" horiz-adv-x="813" 
d="M750 0h-687v510h88v-438h211v438h88v-438h212v438h88v-510z" />
    <glyph glyph-name="afii10091" unicode="&#x449;" horiz-adv-x="826" 
d="M816 -150h-83v150h-670v510h88v-438h211v438h88v-438h212v438h88v-438h66v-222z" />
    <glyph glyph-name="afii10092" unicode="&#x44a;" horiz-adv-x="600" 
d="M568 160c0 -100 -74 -160 -176 -160h-235v438h-157v72h245v-195h150c92 0 173 -50 173 -155zM474 157c0 65 -46 86 -97 86h-132v-171h138c54 0 91 31 91 85z" />
    <glyph glyph-name="afii10093" unicode="&#x44b;" horiz-adv-x="703" 
d="M640 0h-88v510h88v-510zM474 160c0 -100 -74 -160 -176 -160h-235v510h88v-195h150c92 0 173 -50 173 -155zM151 243v-171h138c54 0 91 31 91 85c0 65 -46 86 -97 86h-132z" />
    <glyph glyph-name="afii10094" unicode="&#x44c;" horiz-adv-x="514" 
d="M477 160c0 -100 -74 -160 -176 -160h-235v510h88v-195h150c92 0 173 -50 173 -155zM154 243v-171h138c54 0 91 31 91 85c0 65 -46 86 -97 86h-132z" />
    <glyph glyph-name="afii10095" unicode="&#x44d;" horiz-adv-x="481" 
d="M439 255c0 -145 -111 -267 -272 -267c-37 0 -84 10 -124 27v82c31 -18 71 -37 114 -37c111 0 177 83 188 171h-211v72h207c-17 84 -81 147 -181 147c-51 0 -75 -17 -111 -32v80c25 10 73 24 116 24c162 0 274 -106 274 -267z" />
    <glyph glyph-name="afii10096" unicode="&#x44e;" horiz-adv-x="790" 
d="M748 255c0 -145 -99 -267 -255 -267c-148 0 -245 110 -254 245h-88v-233h-88v510h88v-206h90c19 127 112 218 252 218c157 0 255 -115 255 -267zM654 255c0 101 -59 195 -161 195s-161 -94 -161 -195c0 -96 51 -195 161 -195s161 99 161 195z" />
    <glyph glyph-name="afii10097" unicode="&#x44f;" horiz-adv-x="522" 
d="M369 259v179h-134c-53 0 -86 -45 -86 -89c0 -55 45 -90 98 -90h122zM181 207c-73 9 -126 75 -126 145c0 90 71 158 170 158h232v-510h-88v192h-92l-170 -192h-115l189 206v1z" />
    <glyph glyph-name="sterling" unicode="&#xa3;" 
d="M390 641c-112 0 -155 -75 -155 -179v-50h165v-56h-165v-274h252v-82h-441v82h95v274h-83v56h83v58c0 142 77 253 241 253c51 0 83 -10 111 -19v-87c-26 12 -60 24 -103 24z" />
    <glyph glyph-name="florin" unicode="&#x192;" horiz-adv-x="500" 
d="M487 640c-14 4 -29 7 -44 7c-71 0 -87 -44 -102 -119l-21 -105h127l-12 -67h-129l-70 -376c-23 -124 -51 -205 -184 -205c-23 0 -39 2 -53 5l16 76c10 -3 19 -5 33 -5c68 0 84 59 96 123l72 382h-115l10 67h116l22 108c20 100 52 192 181 192c24 0 48 -5 71 -10z" />
    <glyph glyph-name="divide" unicode="&#xf7;" horiz-adv-x="600" 
d="M553 211h-506v84h506v-84zM352 404h-106v106h106v-106zM352 0h-106v106h106v-106z" />
    <glyph glyph-name="Delta" unicode="&#x394;" horiz-adv-x="656" 
d="M635 0h-607l322 732zM520 54l-191 487l-216 -487h407z" />
    <glyph glyph-name="Delta" unicode="&#x2206;" horiz-adv-x="656" 
d="M635 0h-607l322 732zM520 54l-191 487l-216 -487h407z" />
    <glyph glyph-name="approxequal" unicode="&#x2248;" horiz-adv-x="600" 
d="M541 403c-22 -51 -68 -104 -135 -104c-35 0 -74 15 -112 32c-37 17 -74 37 -101 37c-40 0 -66 -37 -83 -64l-51 39c22 51 68 104 135 104c35 0 74 -15 112 -32c37 -17 74 -37 101 -37c40 0 66 37 83 64zM541 213c-22 -51 -68 -104 -135 -104c-35 0 -74 15 -112 32
c-37 17 -74 37 -101 37c-40 0 -66 -37 -83 -64l-51 39c22 51 68 104 135 104c35 0 74 -15 112 -32c37 -17 74 -37 101 -37c40 0 66 37 83 64z" />
    <glyph glyph-name="greaterequal" unicode="&#x2265;" horiz-adv-x="600" 
d="M49 68v81l391 145l-391 146v81l502 -190v-74zM49 -27v74h502v-74h-502z" />
    <glyph glyph-name="hyphenminus" horiz-adv-x="333" 
d="M294 232h-255v74h255v-74z" />
    <glyph glyph-name="infinity" unicode="&#x221e;" horiz-adv-x="738" 
d="M706 266c0 -71 -58 -152 -140 -152c-99 -1 -165 75 -197 107c-33 -32 -96 -106 -197 -107c-82 0 -142 80 -142 152c0 80 67 151 149 151c64 0 100 -26 190 -108c88 82 124 108 188 108c83 0 149 -71 149 -151zM642 260c0 38 -29 92 -85 92c-57 0 -72 -21 -145 -87
c63 -65 88 -89 145 -89c43 0 85 36 85 84zM326 265c-76 66 -97 87 -147 87c-56 0 -85 -57 -85 -92c0 -50 46 -84 90 -84c58 0 79 26 142 89z" />
    <glyph glyph-name="lessequal" unicode="&#x2264;" horiz-adv-x="600" 
d="M49 257v74l502 190v-81l-390 -146l390 -145v-81zM49 -27v74h502v-74h-502z" />
    <glyph glyph-name="notequal" unicode="&#x2260;" horiz-adv-x="600" 
d="M565 107h-297l-62 -108h-88l62 108h-121v84h171l71 124h-242v84h291l63 109h88l-63 -109h127v-84h-176l-72 -124h248v-84z" />
    <glyph glyph-name="radical" unicode="&#x221a;" horiz-adv-x="519" 
d="M520 786l-211 -1000h-80l-161 331l-47 -23l-31 65l118 56l148 -310l181 881h83z" />
    <glyph glyph-name="Euro" unicode="&#x20ac;" 
d="M495 681v-94c-26 27 -73 50 -142 50c-101 0 -153 -69 -166 -170h270l-24 -73h-255c0 -10 -1 -23 -1 -34c0 -14 1 -28 1 -37h231l-24 -73h-198c15 -113 72 -175 167 -175c68 0 112 23 141 50v-95c-22 -18 -75 -40 -153 -40c-134 0 -222 81 -245 260h-74l24 73h42
c-1 9 -1 23 -1 36s0 25 1 35h-66l24 73h49c21 151 95 256 246 256c73 0 128 -22 153 -42z" />
    </font>
</defs>
</svg>
